<svg width="32" height="32" viewBox="0 0 32 32" fill="none" xmlns="http://www.w3.org/2000/svg">
<path d="M16 11.6667C14.8507 11.6667 13.7485 12.1232 12.9358 12.9359C12.1232 13.7485 11.6666 14.8507 11.6666 16C11.6666 17.1493 12.1232 18.2515 12.9358 19.0641C13.7485 19.8768 14.8507 20.3334 16 20.3334C17.1492 20.3334 18.2514 19.8768 19.0641 19.0641C19.8767 18.2515 20.3333 17.1493 20.3333 16C20.3333 14.8507 19.8767 13.7485 19.0641 12.9359C18.2514 12.1232 17.1492 11.6667 16 11.6667Z" fill="#303030"/>
<path fill-rule="evenodd" clip-rule="evenodd" d="M9.0267 4.10931C13.6614 3.59589 18.3387 3.59589 22.9734 4.10931C25.5054 4.39198 27.5467 6.38531 27.844 8.92665C28.3933 13.6262 28.3933 18.3738 27.844 23.0733C27.5467 25.6146 25.5054 27.608 22.9747 27.892C18.3395 28.4055 13.6619 28.4055 9.0267 27.892C6.4947 27.608 4.45337 25.6146 4.15604 23.0746C3.60668 18.3746 3.60668 13.6266 4.15604 8.92665C4.45337 6.38531 6.4947 4.39198 9.0267 4.10931ZM22.6667 7.99998C22.3131 7.99998 21.9739 8.14046 21.7239 8.39051C21.4738 8.64055 21.3334 8.97969 21.3334 9.33331C21.3334 9.68694 21.4738 10.0261 21.7239 10.2761C21.9739 10.5262 22.3131 10.6666 22.6667 10.6666C23.0203 10.6666 23.3595 10.5262 23.6095 10.2761C23.8596 10.0261 24 9.68694 24 9.33331C24 8.97969 23.8596 8.64055 23.6095 8.39051C23.3595 8.14046 23.0203 7.99998 22.6667 7.99998ZM9.6667 16C9.6667 14.3203 10.334 12.7094 11.5217 11.5216C12.7094 10.3339 14.3203 9.66665 16 9.66665C17.6797 9.66665 19.2906 10.3339 20.4784 11.5216C21.6661 12.7094 22.3334 14.3203 22.3334 16C22.3334 17.6797 21.6661 19.2906 20.4784 20.4783C19.2906 21.6661 17.6797 22.3333 16 22.3333C14.3203 22.3333 12.7094 21.6661 11.5217 20.4783C10.334 19.2906 9.6667 17.6797 9.6667 16Z" fill="#303030"/>
</svg>
