<svg width="32" height="32" viewBox="0 0 32 32" fill="none" xmlns="http://www.w3.org/2000/svg">
<path d="M25.6001 4.26666H6.40006C5.22139 4.26666 4.26672 5.22133 4.26672 6.4V25.6C4.26672 26.7787 5.22139 27.7333 6.40006 27.7333H25.6001C26.7787 27.7333 27.7334 26.7787 27.7334 25.6V6.4C27.7334 5.22133 26.7787 4.26666 25.6001 4.26666ZM11.6843 23.4667H8.53766V13.3419H11.6843V23.4667ZM10.079 11.8944C9.06459 11.8944 8.24432 11.072 8.24432 10.0597C8.24432 9.04746 9.06566 8.22613 10.079 8.22613C11.0902 8.22613 11.9126 9.04853 11.9126 10.0597C11.9126 11.072 11.0902 11.8944 10.079 11.8944ZM23.471 23.4667H20.3265V18.5429C20.3265 17.3685 20.3051 15.8581 18.6913 15.8581C17.0539 15.8581 16.8022 17.1371 16.8022 18.4576V23.4667H13.6577V13.3419H16.6763V14.7253H16.719C17.1393 13.9296 18.1654 13.0901 19.6961 13.0901C22.8822 13.0901 23.471 15.1872 23.471 17.9136V23.4667Z" fill="#303030"/>
</svg>
