<svg width="32" height="32" viewBox="0 0 32 32" fill="none" xmlns="http://www.w3.org/2000/svg">
<path d="M6.40006 4.26666C5.22139 4.26666 4.26672 5.22133 4.26672 6.4V25.6C4.26672 26.7787 5.22139 27.7333 6.40006 27.7333H25.6001C26.7787 27.7333 27.7334 26.7787 27.7334 25.6V6.4C27.7334 5.22133 26.7787 4.26666 25.6001 4.26666H6.40006ZM9.22506 9.6H14.1438L17.0146 13.7042L20.5667 9.6H22.1146L17.7105 14.7L23.098 22.4H18.1792L14.9938 17.8458L11.0605 22.4H9.48756L14.2938 16.8479L9.22506 9.6ZM11.6042 10.8625L18.8084 21.1312H20.7167L13.5105 10.8625H11.6042Z" fill="#303030"/>
</svg>
