<svg width="32" height="32" viewBox="0 0 32 32" fill="none" xmlns="http://www.w3.org/2000/svg">
<path d="M13.3333 20L20.2533 16L13.3333 12V20ZM28.7466 9.56002C28.92 10.1867 29.04 11.0267 29.12 12.0934C29.2133 13.16 29.2533 14.08 29.2533 14.88L29.3333 16C29.3333 18.92 29.12 21.0667 28.7466 22.44C28.4133 23.64 27.64 24.4134 26.44 24.7467C25.8133 24.92 24.6666 25.04 22.9066 25.12C21.1733 25.2134 19.5866 25.2534 18.12 25.2534L16 25.3334C10.4133 25.3334 6.93329 25.12 5.55996 24.7467C4.35996 24.4134 3.58663 23.64 3.25329 22.44C3.07996 21.8134 2.95996 20.9734 2.87996 19.9067C2.78663 18.84 2.74663 17.92 2.74663 17.12L2.66663 16C2.66663 13.08 2.87996 10.9334 3.25329 9.56002C3.58663 8.36002 4.35996 7.58669 5.55996 7.25335C6.18663 7.08002 7.33329 6.96002 9.09329 6.88002C10.8266 6.78669 12.4133 6.74669 13.88 6.74669L16 6.66669C21.5866 6.66669 25.0666 6.88002 26.44 7.25335C27.64 7.58669 28.4133 8.36002 28.7466 9.56002Z" fill="#303030"/>
</svg>
